<?xml version="1.0" encoding="UTF-8" standalone="no"?>
<!DOCTYPE svg PUBLIC "-//W3C//DTD SVG 1.1//EN"
 "http://www.w3.org/Graphics/SVG/1.1/DTD/svg11.dtd">
<!-- Generated by graphviz version 2.38.0 (20140413.2041)
 -->
<!-- Title: Tree Pages: 1 -->
<svg width="326pt" height="638pt"
 viewBox="0.00 0.00 326.00 638.00" xmlns="http://www.w3.org/2000/svg" xmlns:xlink="http://www.w3.org/1999/xlink">
<g id="graph0" class="graph" transform="scale(1 1) rotate(0) translate(4 634)">
<title>Tree</title>
<polygon fill="white" stroke="none" points="-4,4 -4,-634 322,-634 322,4 -4,4"/>
<!-- ;
[1F0A3D0] -->
<g id="node1" class="node"><title>;
[1F0A3D0]</title>
<polygon fill="none" stroke="black" points="126.5,-630 46.5,-630 46.5,-592 126.5,-592 126.5,-630"/>
<text text-anchor="middle" x="86.5" y="-614.8" font-family="Times,serif" font-size="14.00">;</text>
<text text-anchor="middle" x="86.5" y="-599.8" font-family="Times,serif" font-size="14.00">[1F0A3D0]</text>
</g>
<!-- ;
[1F0A090] -->
<g id="node2" class="node"><title>;
[1F0A090]</title>
<polygon fill="none" stroke="black" points="125,-556 48,-556 48,-518 125,-518 125,-556"/>
<text text-anchor="middle" x="86.5" y="-540.8" font-family="Times,serif" font-size="14.00">;</text>
<text text-anchor="middle" x="86.5" y="-525.8" font-family="Times,serif" font-size="14.00">[1F0A090]</text>
</g>
<!-- ;
[1F0A3D0]&#45;&gt;;
[1F0A090] -->
<g id="edge1" class="edge"><title>;
[1F0A3D0]&#45;&gt;;
[1F0A090]</title>
<path fill="none" stroke="black" d="M86.5,-591.831C86.5,-584.131 86.5,-574.974 86.5,-566.417"/>
<polygon fill="black" stroke="black" points="90.0001,-566.413 86.5,-556.413 83.0001,-566.413 90.0001,-566.413"/>
</g>
<!-- in
[1F0A010] -->
<g id="node3" class="node"><title>in
[1F0A010]</title>
<polygon fill="none" stroke="black" points="78,-482 1,-482 1,-444 78,-444 78,-482"/>
<text text-anchor="middle" x="39.5" y="-466.8" font-family="Times,serif" font-size="14.00">in</text>
<text text-anchor="middle" x="39.5" y="-451.8" font-family="Times,serif" font-size="14.00">[1F0A010]</text>
</g>
<!-- ;
[1F0A090]&#45;&gt;in
[1F0A010] -->
<g id="edge2" class="edge"><title>;
[1F0A090]&#45;&gt;in
[1F0A010]</title>
<path fill="none" stroke="black" d="M74.6399,-517.831C69.3371,-509.708 62.9763,-499.964 57.1327,-491.012"/>
<polygon fill="black" stroke="black" points="59.9169,-488.874 51.5198,-482.413 54.0552,-492.7 59.9169,-488.874"/>
</g>
<!-- ;
[1F0A390] -->
<g id="node5" class="node"><title>;
[1F0A390]</title>
<polygon fill="none" stroke="black" points="173,-482 96,-482 96,-444 173,-444 173,-482"/>
<text text-anchor="middle" x="134.5" y="-466.8" font-family="Times,serif" font-size="14.00">;</text>
<text text-anchor="middle" x="134.5" y="-451.8" font-family="Times,serif" font-size="14.00">[1F0A390]</text>
</g>
<!-- ;
[1F0A090]&#45;&gt;;
[1F0A390] -->
<g id="edge4" class="edge"><title>;
[1F0A090]&#45;&gt;;
[1F0A390]</title>
<path fill="none" stroke="black" d="M98.6124,-517.831C104.028,-509.708 110.524,-499.964 116.492,-491.012"/>
<polygon fill="black" stroke="black" points="119.59,-492.675 122.224,-482.413 113.765,-488.792 119.59,-492.675"/>
</g>
<!-- a
[1F0A050] -->
<g id="node4" class="node"><title>a
[1F0A050]</title>
<polygon fill="none" stroke="black" points="77,-408 0,-408 0,-370 77,-370 77,-408"/>
<text text-anchor="middle" x="38.5" y="-392.8" font-family="Times,serif" font-size="14.00">a</text>
<text text-anchor="middle" x="38.5" y="-377.8" font-family="Times,serif" font-size="14.00">[1F0A050]</text>
</g>
<!-- in
[1F0A010]&#45;&gt;a
[1F0A050] -->
<g id="edge3" class="edge"><title>in
[1F0A010]&#45;&gt;a
[1F0A050]</title>
<path fill="none" stroke="black" d="M39.2477,-443.831C39.1407,-436.131 39.0135,-426.974 38.8947,-418.417"/>
<polygon fill="black" stroke="black" points="42.3944,-418.364 38.7557,-408.413 35.3951,-418.461 42.3944,-418.364"/>
</g>
<!-- out
[1F0A0D0] -->
<g id="node6" class="node"><title>out
[1F0A0D0]</title>
<polygon fill="none" stroke="black" points="175.5,-408 95.5,-408 95.5,-370 175.5,-370 175.5,-408"/>
<text text-anchor="middle" x="135.5" y="-392.8" font-family="Times,serif" font-size="14.00">out</text>
<text text-anchor="middle" x="135.5" y="-377.8" font-family="Times,serif" font-size="14.00">[1F0A0D0]</text>
</g>
<!-- ;
[1F0A390]&#45;&gt;out
[1F0A0D0] -->
<g id="edge5" class="edge"><title>;
[1F0A390]&#45;&gt;out
[1F0A0D0]</title>
<path fill="none" stroke="black" d="M134.752,-443.831C134.859,-436.131 134.986,-426.974 135.105,-418.417"/>
<polygon fill="black" stroke="black" points="138.605,-418.461 135.244,-408.413 131.606,-418.364 138.605,-418.461"/>
</g>
<!-- +
[1F0A1D0] -->
<g id="node7" class="node"><title>+
[1F0A1D0]</title>
<polygon fill="none" stroke="black" points="175.5,-334 95.5,-334 95.5,-296 175.5,-296 175.5,-334"/>
<text text-anchor="middle" x="135.5" y="-318.8" font-family="Times,serif" font-size="14.00">+</text>
<text text-anchor="middle" x="135.5" y="-303.8" font-family="Times,serif" font-size="14.00">[1F0A1D0]</text>
</g>
<!-- out
[1F0A0D0]&#45;&gt;+
[1F0A1D0] -->
<g id="edge6" class="edge"><title>out
[1F0A0D0]&#45;&gt;+
[1F0A1D0]</title>
<path fill="none" stroke="black" d="M135.5,-369.831C135.5,-362.131 135.5,-352.974 135.5,-344.417"/>
<polygon fill="black" stroke="black" points="139,-344.413 135.5,-334.413 132,-344.413 139,-344.413"/>
</g>
<!-- 530
[1F0A440] -->
<g id="node8" class="node"><title>530
[1F0A440]</title>
<polygon fill="none" stroke="black" points="127,-260 50,-260 50,-222 127,-222 127,-260"/>
<text text-anchor="middle" x="88.5" y="-244.8" font-family="Times,serif" font-size="14.00">530</text>
<text text-anchor="middle" x="88.5" y="-229.8" font-family="Times,serif" font-size="14.00">[1F0A440]</text>
</g>
<!-- +
[1F0A1D0]&#45;&gt;530
[1F0A440] -->
<g id="edge7" class="edge"><title>+
[1F0A1D0]&#45;&gt;530
[1F0A440]</title>
<path fill="none" stroke="black" d="M123.64,-295.831C118.337,-287.708 111.976,-277.964 106.133,-269.012"/>
<polygon fill="black" stroke="black" points="108.917,-266.874 100.52,-260.413 103.055,-270.7 108.917,-266.874"/>
</g>
<!-- *
[1F0A250] -->
<g id="node9" class="node"><title>*
[1F0A250]</title>
<polygon fill="none" stroke="black" points="222,-260 145,-260 145,-222 222,-222 222,-260"/>
<text text-anchor="middle" x="183.5" y="-244.8" font-family="Times,serif" font-size="14.00">*</text>
<text text-anchor="middle" x="183.5" y="-229.8" font-family="Times,serif" font-size="14.00">[1F0A250]</text>
</g>
<!-- +
[1F0A1D0]&#45;&gt;*
[1F0A250] -->
<g id="edge8" class="edge"><title>+
[1F0A1D0]&#45;&gt;*
[1F0A250]</title>
<path fill="none" stroke="black" d="M147.612,-295.831C153.028,-287.708 159.524,-277.964 165.492,-269.012"/>
<polygon fill="black" stroke="black" points="168.59,-270.675 171.224,-260.413 162.765,-266.792 168.59,-270.675"/>
</g>
<!-- 150
[1F0A210] -->
<g id="node10" class="node"><title>150
[1F0A210]</title>
<polygon fill="none" stroke="black" points="174,-186 97,-186 97,-148 174,-148 174,-186"/>
<text text-anchor="middle" x="135.5" y="-170.8" font-family="Times,serif" font-size="14.00">150</text>
<text text-anchor="middle" x="135.5" y="-155.8" font-family="Times,serif" font-size="14.00">[1F0A210]</text>
</g>
<!-- *
[1F0A250]&#45;&gt;150
[1F0A210] -->
<g id="edge9" class="edge"><title>*
[1F0A250]&#45;&gt;150
[1F0A210]</title>
<path fill="none" stroke="black" d="M171.388,-221.831C165.972,-213.708 159.476,-203.964 153.508,-195.012"/>
<polygon fill="black" stroke="black" points="156.235,-192.792 147.776,-186.413 150.41,-196.675 156.235,-192.792"/>
</g>
<!-- sin
[1F0A290] -->
<g id="node11" class="node"><title>sin
[1F0A290]</title>
<polygon fill="none" stroke="black" points="269,-186 192,-186 192,-148 269,-148 269,-186"/>
<text text-anchor="middle" x="230.5" y="-170.8" font-family="Times,serif" font-size="14.00">sin</text>
<text text-anchor="middle" x="230.5" y="-155.8" font-family="Times,serif" font-size="14.00">[1F0A290]</text>
</g>
<!-- *
[1F0A250]&#45;&gt;sin
[1F0A290] -->
<g id="edge10" class="edge"><title>*
[1F0A250]&#45;&gt;sin
[1F0A290]</title>
<path fill="none" stroke="black" d="M195.36,-221.831C200.663,-213.708 207.024,-203.964 212.867,-195.012"/>
<polygon fill="black" stroke="black" points="215.945,-196.7 218.48,-186.413 210.083,-192.874 215.945,-196.7"/>
</g>
<!-- *
[1F0A310] -->
<g id="node12" class="node"><title>*
[1F0A310]</title>
<polygon fill="none" stroke="black" points="269,-112 192,-112 192,-74 269,-74 269,-112"/>
<text text-anchor="middle" x="230.5" y="-96.8" font-family="Times,serif" font-size="14.00">*</text>
<text text-anchor="middle" x="230.5" y="-81.8" font-family="Times,serif" font-size="14.00">[1F0A310]</text>
</g>
<!-- sin
[1F0A290]&#45;&gt;*
[1F0A310] -->
<g id="edge11" class="edge"><title>sin
[1F0A290]&#45;&gt;*
[1F0A310]</title>
<path fill="none" stroke="black" d="M230.5,-147.831C230.5,-140.131 230.5,-130.974 230.5,-122.417"/>
<polygon fill="black" stroke="black" points="234,-122.413 230.5,-112.413 227,-122.413 234,-122.413"/>
</g>
<!-- 5
[1F0A2D0] -->
<g id="node13" class="node"><title>5
[1F0A2D0]</title>
<polygon fill="none" stroke="black" points="222.5,-38 142.5,-38 142.5,-0 222.5,-0 222.5,-38"/>
<text text-anchor="middle" x="182.5" y="-22.8" font-family="Times,serif" font-size="14.00">5</text>
<text text-anchor="middle" x="182.5" y="-7.8" font-family="Times,serif" font-size="14.00">[1F0A2D0]</text>
</g>
<!-- *
[1F0A310]&#45;&gt;5
[1F0A2D0] -->
<g id="edge12" class="edge"><title>*
[1F0A310]&#45;&gt;5
[1F0A2D0]</title>
<path fill="none" stroke="black" d="M218.388,-73.8314C212.972,-65.7079 206.476,-55.9637 200.508,-47.0118"/>
<polygon fill="black" stroke="black" points="203.235,-44.7923 194.776,-38.4133 197.41,-48.6753 203.235,-44.7923"/>
</g>
<!-- a
[1F0A350] -->
<g id="node14" class="node"><title>a
[1F0A350]</title>
<polygon fill="none" stroke="black" points="318,-38 241,-38 241,-0 318,-0 318,-38"/>
<text text-anchor="middle" x="279.5" y="-22.8" font-family="Times,serif" font-size="14.00">a</text>
<text text-anchor="middle" x="279.5" y="-7.8" font-family="Times,serif" font-size="14.00">[1F0A350]</text>
</g>
<!-- *
[1F0A310]&#45;&gt;a
[1F0A350] -->
<g id="edge13" class="edge"><title>*
[1F0A310]&#45;&gt;a
[1F0A350]</title>
<path fill="none" stroke="black" d="M242.865,-73.8314C248.451,-65.6232 255.163,-55.7606 261.307,-46.7323"/>
<polygon fill="black" stroke="black" points="264.236,-48.6496 266.969,-38.4133 258.449,-44.7112 264.236,-48.6496"/>
</g>
</g>
</svg>
