<?xml version="1.0" encoding="UTF-8" standalone="no"?>
<!DOCTYPE svg PUBLIC "-//W3C//DTD SVG 1.1//EN"
 "http://www.w3.org/Graphics/SVG/1.1/DTD/svg11.dtd">
<!-- Generated by graphviz version 2.38.0 (20140413.2041)
 -->
<!-- Title: Tree Pages: 1 -->
<svg width="419pt" height="638pt"
 viewBox="0.00 0.00 419.00 638.00" xmlns="http://www.w3.org/2000/svg" xmlns:xlink="http://www.w3.org/1999/xlink">
<g id="graph0" class="graph" transform="scale(1 1) rotate(0) translate(4 634)">
<title>Tree</title>
<polygon fill="white" stroke="none" points="-4,4 -4,-634 415,-634 415,4 -4,4"/>
<!-- ;
[1F0A3D0] -->
<g id="node1" class="node"><title>;
[1F0A3D0]</title>
<polygon fill="none" stroke="black" points="171.5,-630 91.5,-630 91.5,-592 171.5,-592 171.5,-630"/>
<text text-anchor="middle" x="131.5" y="-614.8" font-family="Times,serif" font-size="14.00">;</text>
<text text-anchor="middle" x="131.5" y="-599.8" font-family="Times,serif" font-size="14.00">[1F0A3D0]</text>
</g>
<!-- ;
[1F0A090] -->
<g id="node2" class="node"><title>;
[1F0A090]</title>
<polygon fill="none" stroke="black" points="170,-556 93,-556 93,-518 170,-518 170,-556"/>
<text text-anchor="middle" x="131.5" y="-540.8" font-family="Times,serif" font-size="14.00">;</text>
<text text-anchor="middle" x="131.5" y="-525.8" font-family="Times,serif" font-size="14.00">[1F0A090]</text>
</g>
<!-- ;
[1F0A3D0]&#45;&gt;;
[1F0A090] -->
<g id="edge1" class="edge"><title>;
[1F0A3D0]&#45;&gt;;
[1F0A090]</title>
<path fill="none" stroke="black" d="M131.5,-591.831C131.5,-584.131 131.5,-574.974 131.5,-566.417"/>
<polygon fill="black" stroke="black" points="135,-566.413 131.5,-556.413 128,-566.413 135,-566.413"/>
</g>
<!-- in
[1F0A010] -->
<g id="node3" class="node"><title>in
[1F0A010]</title>
<polygon fill="none" stroke="black" points="123,-482 46,-482 46,-444 123,-444 123,-482"/>
<text text-anchor="middle" x="84.5" y="-466.8" font-family="Times,serif" font-size="14.00">in</text>
<text text-anchor="middle" x="84.5" y="-451.8" font-family="Times,serif" font-size="14.00">[1F0A010]</text>
</g>
<!-- ;
[1F0A090]&#45;&gt;in
[1F0A010] -->
<g id="edge2" class="edge"><title>;
[1F0A090]&#45;&gt;in
[1F0A010]</title>
<path fill="none" stroke="black" d="M119.64,-517.831C114.337,-509.708 107.976,-499.964 102.133,-491.012"/>
<polygon fill="black" stroke="black" points="104.917,-488.874 96.5198,-482.413 99.0552,-492.7 104.917,-488.874"/>
</g>
<!-- ;
[1F0A390] -->
<g id="node5" class="node"><title>;
[1F0A390]</title>
<polygon fill="none" stroke="black" points="218,-482 141,-482 141,-444 218,-444 218,-482"/>
<text text-anchor="middle" x="179.5" y="-466.8" font-family="Times,serif" font-size="14.00">;</text>
<text text-anchor="middle" x="179.5" y="-451.8" font-family="Times,serif" font-size="14.00">[1F0A390]</text>
</g>
<!-- ;
[1F0A090]&#45;&gt;;
[1F0A390] -->
<g id="edge4" class="edge"><title>;
[1F0A090]&#45;&gt;;
[1F0A390]</title>
<path fill="none" stroke="black" d="M143.612,-517.831C149.028,-509.708 155.524,-499.964 161.492,-491.012"/>
<polygon fill="black" stroke="black" points="164.59,-492.675 167.224,-482.413 158.765,-488.792 164.59,-492.675"/>
</g>
<!-- a
[1F0A050] -->
<g id="node4" class="node"><title>a
[1F0A050]</title>
<polygon fill="none" stroke="black" points="122,-408 45,-408 45,-370 122,-370 122,-408"/>
<text text-anchor="middle" x="83.5" y="-392.8" font-family="Times,serif" font-size="14.00">a</text>
<text text-anchor="middle" x="83.5" y="-377.8" font-family="Times,serif" font-size="14.00">[1F0A050]</text>
</g>
<!-- in
[1F0A010]&#45;&gt;a
[1F0A050] -->
<g id="edge3" class="edge"><title>in
[1F0A010]&#45;&gt;a
[1F0A050]</title>
<path fill="none" stroke="black" d="M84.2477,-443.831C84.1407,-436.131 84.0135,-426.974 83.8947,-418.417"/>
<polygon fill="black" stroke="black" points="87.3944,-418.364 83.7557,-408.413 80.3951,-418.461 87.3944,-418.364"/>
</g>
<!-- out
[1F0A0D0] -->
<g id="node6" class="node"><title>out
[1F0A0D0]</title>
<polygon fill="none" stroke="black" points="220.5,-408 140.5,-408 140.5,-370 220.5,-370 220.5,-408"/>
<text text-anchor="middle" x="180.5" y="-392.8" font-family="Times,serif" font-size="14.00">out</text>
<text text-anchor="middle" x="180.5" y="-377.8" font-family="Times,serif" font-size="14.00">[1F0A0D0]</text>
</g>
<!-- ;
[1F0A390]&#45;&gt;out
[1F0A0D0] -->
<g id="edge5" class="edge"><title>;
[1F0A390]&#45;&gt;out
[1F0A0D0]</title>
<path fill="none" stroke="black" d="M179.752,-443.831C179.859,-436.131 179.986,-426.974 180.105,-418.417"/>
<polygon fill="black" stroke="black" points="183.605,-418.461 180.244,-408.413 176.606,-418.364 183.605,-418.461"/>
</g>
<!-- +
[1F0A1D0] -->
<g id="node7" class="node"><title>+
[1F0A1D0]</title>
<polygon fill="none" stroke="black" points="220.5,-334 140.5,-334 140.5,-296 220.5,-296 220.5,-334"/>
<text text-anchor="middle" x="180.5" y="-318.8" font-family="Times,serif" font-size="14.00">+</text>
<text text-anchor="middle" x="180.5" y="-303.8" font-family="Times,serif" font-size="14.00">[1F0A1D0]</text>
</g>
<!-- out
[1F0A0D0]&#45;&gt;+
[1F0A1D0] -->
<g id="edge6" class="edge"><title>out
[1F0A0D0]&#45;&gt;+
[1F0A1D0]</title>
<path fill="none" stroke="black" d="M180.5,-369.831C180.5,-362.131 180.5,-352.974 180.5,-344.417"/>
<polygon fill="black" stroke="black" points="184,-344.413 180.5,-334.413 177,-344.413 184,-344.413"/>
</g>
<!-- /
[1F0A150] -->
<g id="node8" class="node"><title>/
[1F0A150]</title>
<polygon fill="none" stroke="black" points="172,-260 95,-260 95,-222 172,-222 172,-260"/>
<text text-anchor="middle" x="133.5" y="-244.8" font-family="Times,serif" font-size="14.00">/</text>
<text text-anchor="middle" x="133.5" y="-229.8" font-family="Times,serif" font-size="14.00">[1F0A150]</text>
</g>
<!-- +
[1F0A1D0]&#45;&gt;/
[1F0A150] -->
<g id="edge7" class="edge"><title>+
[1F0A1D0]&#45;&gt;/
[1F0A150]</title>
<path fill="none" stroke="black" d="M168.64,-295.831C163.337,-287.708 156.976,-277.964 151.133,-269.012"/>
<polygon fill="black" stroke="black" points="153.917,-266.874 145.52,-260.413 148.055,-270.7 153.917,-266.874"/>
</g>
<!-- *
[1F0A250] -->
<g id="node11" class="node"><title>*
[1F0A250]</title>
<polygon fill="none" stroke="black" points="267,-260 190,-260 190,-222 267,-222 267,-260"/>
<text text-anchor="middle" x="228.5" y="-244.8" font-family="Times,serif" font-size="14.00">*</text>
<text text-anchor="middle" x="228.5" y="-229.8" font-family="Times,serif" font-size="14.00">[1F0A250]</text>
</g>
<!-- +
[1F0A1D0]&#45;&gt;*
[1F0A250] -->
<g id="edge10" class="edge"><title>+
[1F0A1D0]&#45;&gt;*
[1F0A250]</title>
<path fill="none" stroke="black" d="M192.612,-295.831C198.028,-287.708 204.524,-277.964 210.492,-269.012"/>
<polygon fill="black" stroke="black" points="213.59,-270.675 216.224,-260.413 207.765,-266.792 213.59,-270.675"/>
</g>
<!-- 1060
[1F0A110] -->
<g id="node9" class="node"><title>1060
[1F0A110]</title>
<polygon fill="none" stroke="black" points="77,-186 0,-186 0,-148 77,-148 77,-186"/>
<text text-anchor="middle" x="38.5" y="-170.8" font-family="Times,serif" font-size="14.00">1060</text>
<text text-anchor="middle" x="38.5" y="-155.8" font-family="Times,serif" font-size="14.00">[1F0A110]</text>
</g>
<!-- /
[1F0A150]&#45;&gt;1060
[1F0A110] -->
<g id="edge8" class="edge"><title>/
[1F0A150]&#45;&gt;1060
[1F0A110]</title>
<path fill="none" stroke="black" d="M109.527,-221.831C97.7139,-212.878 83.3028,-201.956 70.5565,-192.295"/>
<polygon fill="black" stroke="black" points="72.5486,-189.414 62.4648,-186.163 68.3205,-194.992 72.5486,-189.414"/>
</g>
<!-- 2
[1F0A190] -->
<g id="node10" class="node"><title>2
[1F0A190]</title>
<polygon fill="none" stroke="black" points="172,-186 95,-186 95,-148 172,-148 172,-186"/>
<text text-anchor="middle" x="133.5" y="-170.8" font-family="Times,serif" font-size="14.00">2</text>
<text text-anchor="middle" x="133.5" y="-155.8" font-family="Times,serif" font-size="14.00">[1F0A190]</text>
</g>
<!-- /
[1F0A150]&#45;&gt;2
[1F0A190] -->
<g id="edge9" class="edge"><title>/
[1F0A150]&#45;&gt;2
[1F0A190]</title>
<path fill="none" stroke="black" d="M133.5,-221.831C133.5,-214.131 133.5,-204.974 133.5,-196.417"/>
<polygon fill="black" stroke="black" points="137,-196.413 133.5,-186.413 130,-196.413 137,-196.413"/>
</g>
<!-- 150
[1F0A210] -->
<g id="node12" class="node"><title>150
[1F0A210]</title>
<polygon fill="none" stroke="black" points="267,-186 190,-186 190,-148 267,-148 267,-186"/>
<text text-anchor="middle" x="228.5" y="-170.8" font-family="Times,serif" font-size="14.00">150</text>
<text text-anchor="middle" x="228.5" y="-155.8" font-family="Times,serif" font-size="14.00">[1F0A210]</text>
</g>
<!-- *
[1F0A250]&#45;&gt;150
[1F0A210] -->
<g id="edge11" class="edge"><title>*
[1F0A250]&#45;&gt;150
[1F0A210]</title>
<path fill="none" stroke="black" d="M228.5,-221.831C228.5,-214.131 228.5,-204.974 228.5,-196.417"/>
<polygon fill="black" stroke="black" points="232,-196.413 228.5,-186.413 225,-196.413 232,-196.413"/>
</g>
<!-- sin
[1F0A290] -->
<g id="node13" class="node"><title>sin
[1F0A290]</title>
<polygon fill="none" stroke="black" points="362,-186 285,-186 285,-148 362,-148 362,-186"/>
<text text-anchor="middle" x="323.5" y="-170.8" font-family="Times,serif" font-size="14.00">sin</text>
<text text-anchor="middle" x="323.5" y="-155.8" font-family="Times,serif" font-size="14.00">[1F0A290]</text>
</g>
<!-- *
[1F0A250]&#45;&gt;sin
[1F0A290] -->
<g id="edge12" class="edge"><title>*
[1F0A250]&#45;&gt;sin
[1F0A290]</title>
<path fill="none" stroke="black" d="M252.473,-221.831C264.286,-212.878 278.697,-201.956 291.443,-192.295"/>
<polygon fill="black" stroke="black" points="293.68,-194.992 299.535,-186.163 289.451,-189.414 293.68,-194.992"/>
</g>
<!-- *
[1F0A310] -->
<g id="node14" class="node"><title>*
[1F0A310]</title>
<polygon fill="none" stroke="black" points="362,-112 285,-112 285,-74 362,-74 362,-112"/>
<text text-anchor="middle" x="323.5" y="-96.8" font-family="Times,serif" font-size="14.00">*</text>
<text text-anchor="middle" x="323.5" y="-81.8" font-family="Times,serif" font-size="14.00">[1F0A310]</text>
</g>
<!-- sin
[1F0A290]&#45;&gt;*
[1F0A310] -->
<g id="edge13" class="edge"><title>sin
[1F0A290]&#45;&gt;*
[1F0A310]</title>
<path fill="none" stroke="black" d="M323.5,-147.831C323.5,-140.131 323.5,-130.974 323.5,-122.417"/>
<polygon fill="black" stroke="black" points="327,-122.413 323.5,-112.413 320,-122.413 327,-122.413"/>
</g>
<!-- 5
[1F0A2D0] -->
<g id="node15" class="node"><title>5
[1F0A2D0]</title>
<polygon fill="none" stroke="black" points="315.5,-38 235.5,-38 235.5,-0 315.5,-0 315.5,-38"/>
<text text-anchor="middle" x="275.5" y="-22.8" font-family="Times,serif" font-size="14.00">5</text>
<text text-anchor="middle" x="275.5" y="-7.8" font-family="Times,serif" font-size="14.00">[1F0A2D0]</text>
</g>
<!-- *
[1F0A310]&#45;&gt;5
[1F0A2D0] -->
<g id="edge14" class="edge"><title>*
[1F0A310]&#45;&gt;5
[1F0A2D0]</title>
<path fill="none" stroke="black" d="M311.388,-73.8314C305.972,-65.7079 299.476,-55.9637 293.508,-47.0118"/>
<polygon fill="black" stroke="black" points="296.235,-44.7923 287.776,-38.4133 290.41,-48.6753 296.235,-44.7923"/>
</g>
<!-- a
[1F0A350] -->
<g id="node16" class="node"><title>a
[1F0A350]</title>
<polygon fill="none" stroke="black" points="411,-38 334,-38 334,-0 411,-0 411,-38"/>
<text text-anchor="middle" x="372.5" y="-22.8" font-family="Times,serif" font-size="14.00">a</text>
<text text-anchor="middle" x="372.5" y="-7.8" font-family="Times,serif" font-size="14.00">[1F0A350]</text>
</g>
<!-- *
[1F0A310]&#45;&gt;a
[1F0A350] -->
<g id="edge15" class="edge"><title>*
[1F0A310]&#45;&gt;a
[1F0A350]</title>
<path fill="none" stroke="black" d="M335.865,-73.8314C341.451,-65.6232 348.163,-55.7606 354.307,-46.7323"/>
<polygon fill="black" stroke="black" points="357.236,-48.6496 359.969,-38.4133 351.449,-44.7112 357.236,-48.6496"/>
</g>
</g>
</svg>
