<?xml version="1.0" encoding="UTF-8" standalone="no"?>
<!DOCTYPE svg PUBLIC "-//W3C//DTD SVG 1.1//EN"
 "http://www.w3.org/Graphics/SVG/1.1/DTD/svg11.dtd">
<!-- Generated by graphviz version 2.38.0 (20140413.2041)
 -->
<!-- Title: Tree Pages: 1 -->
<svg width="398pt" height="712pt"
 viewBox="0.00 0.00 397.50 712.00" xmlns="http://www.w3.org/2000/svg" xmlns:xlink="http://www.w3.org/1999/xlink">
<g id="graph0" class="graph" transform="scale(1 1) rotate(0) translate(4 708)">
<title>Tree</title>
<polygon fill="white" stroke="none" points="-4,4 -4,-708 393.5,-708 393.5,4 -4,4"/>
<!-- ;
[E6A4D0] -->
<g id="node1" class="node"><title>;
[E6A4D0]</title>
<polygon fill="none" stroke="black" points="120,-704 46,-704 46,-666 120,-666 120,-704"/>
<text text-anchor="middle" x="83" y="-688.8" font-family="Times,serif" font-size="14.00">;</text>
<text text-anchor="middle" x="83" y="-673.8" font-family="Times,serif" font-size="14.00">[E6A4D0]</text>
</g>
<!-- ;
[E6A090] -->
<g id="node2" class="node"><title>;
[E6A090]</title>
<polygon fill="none" stroke="black" points="118.5,-630 47.5,-630 47.5,-592 118.5,-592 118.5,-630"/>
<text text-anchor="middle" x="83" y="-614.8" font-family="Times,serif" font-size="14.00">;</text>
<text text-anchor="middle" x="83" y="-599.8" font-family="Times,serif" font-size="14.00">[E6A090]</text>
</g>
<!-- ;
[E6A4D0]&#45;&gt;;
[E6A090] -->
<g id="edge1" class="edge"><title>;
[E6A4D0]&#45;&gt;;
[E6A090]</title>
<path fill="none" stroke="black" d="M83,-665.831C83,-658.131 83,-648.974 83,-640.417"/>
<polygon fill="black" stroke="black" points="86.5001,-640.413 83,-630.413 79.5001,-640.413 86.5001,-640.413"/>
</g>
<!-- in
[E6A010] -->
<g id="node3" class="node"><title>in
[E6A010]</title>
<polygon fill="none" stroke="black" points="74.5,-556 3.5,-556 3.5,-518 74.5,-518 74.5,-556"/>
<text text-anchor="middle" x="39" y="-540.8" font-family="Times,serif" font-size="14.00">in</text>
<text text-anchor="middle" x="39" y="-525.8" font-family="Times,serif" font-size="14.00">[E6A010]</text>
</g>
<!-- ;
[E6A090]&#45;&gt;in
[E6A010] -->
<g id="edge2" class="edge"><title>;
[E6A090]&#45;&gt;in
[E6A010]</title>
<path fill="none" stroke="black" d="M71.8969,-591.831C66.9326,-583.708 60.9778,-573.964 55.5072,-565.012"/>
<polygon fill="black" stroke="black" points="58.4536,-563.121 50.2526,-556.413 52.4806,-566.771 58.4536,-563.121"/>
</g>
<!-- ;
[E6A210] -->
<g id="node5" class="node"><title>;
[E6A210]</title>
<polygon fill="none" stroke="black" points="163.5,-556 92.5,-556 92.5,-518 163.5,-518 163.5,-556"/>
<text text-anchor="middle" x="128" y="-540.8" font-family="Times,serif" font-size="14.00">;</text>
<text text-anchor="middle" x="128" y="-525.8" font-family="Times,serif" font-size="14.00">[E6A210]</text>
</g>
<!-- ;
[E6A090]&#45;&gt;;
[E6A210] -->
<g id="edge4" class="edge"><title>;
[E6A090]&#45;&gt;;
[E6A210]</title>
<path fill="none" stroke="black" d="M94.3554,-591.831C99.4326,-583.708 105.523,-573.964 111.118,-565.012"/>
<polygon fill="black" stroke="black" points="114.16,-566.748 116.492,-556.413 108.224,-563.038 114.16,-566.748"/>
</g>
<!-- a
[E6A050] -->
<g id="node4" class="node"><title>a
[E6A050]</title>
<polygon fill="none" stroke="black" points="74.5,-482 3.5,-482 3.5,-444 74.5,-444 74.5,-482"/>
<text text-anchor="middle" x="39" y="-466.8" font-family="Times,serif" font-size="14.00">a</text>
<text text-anchor="middle" x="39" y="-451.8" font-family="Times,serif" font-size="14.00">[E6A050]</text>
</g>
<!-- in
[E6A010]&#45;&gt;a
[E6A050] -->
<g id="edge3" class="edge"><title>in
[E6A010]&#45;&gt;a
[E6A050]</title>
<path fill="none" stroke="black" d="M39,-517.831C39,-510.131 39,-500.974 39,-492.417"/>
<polygon fill="black" stroke="black" points="42.5001,-492.413 39,-482.413 35.5001,-492.413 42.5001,-492.413"/>
</g>
<!-- =
[E6A110] -->
<g id="node6" class="node"><title>=
[E6A110]</title>
<polygon fill="none" stroke="black" points="163.5,-482 92.5,-482 92.5,-444 163.5,-444 163.5,-482"/>
<text text-anchor="middle" x="128" y="-466.8" font-family="Times,serif" font-size="14.00">=</text>
<text text-anchor="middle" x="128" y="-451.8" font-family="Times,serif" font-size="14.00">[E6A110]</text>
</g>
<!-- ;
[E6A210]&#45;&gt;=
[E6A110] -->
<g id="edge5" class="edge"><title>;
[E6A210]&#45;&gt;=
[E6A110]</title>
<path fill="none" stroke="black" d="M128,-517.831C128,-510.131 128,-500.974 128,-492.417"/>
<polygon fill="black" stroke="black" points="131.5,-492.413 128,-482.413 124.5,-492.413 131.5,-492.413"/>
</g>
<!-- ;
[E6A490] -->
<g id="node11" class="node"><title>;
[E6A490]</title>
<polygon fill="none" stroke="black" points="253.5,-482 182.5,-482 182.5,-444 253.5,-444 253.5,-482"/>
<text text-anchor="middle" x="218" y="-466.8" font-family="Times,serif" font-size="14.00">;</text>
<text text-anchor="middle" x="218" y="-451.8" font-family="Times,serif" font-size="14.00">[E6A490]</text>
</g>
<!-- ;
[E6A210]&#45;&gt;;
[E6A490] -->
<g id="edge10" class="edge"><title>;
[E6A210]&#45;&gt;;
[E6A490]</title>
<path fill="none" stroke="black" d="M150.711,-517.831C161.796,-508.963 175.295,-498.164 187.285,-488.572"/>
<polygon fill="black" stroke="black" points="189.674,-491.143 195.296,-482.163 185.301,-485.677 189.674,-491.143"/>
</g>
<!-- a
[E6A0D0] -->
<g id="node7" class="node"><title>a
[E6A0D0]</title>
<polygon fill="none" stroke="black" points="74,-408 0,-408 0,-370 74,-370 74,-408"/>
<text text-anchor="middle" x="37" y="-392.8" font-family="Times,serif" font-size="14.00">a</text>
<text text-anchor="middle" x="37" y="-377.8" font-family="Times,serif" font-size="14.00">[E6A0D0]</text>
</g>
<!-- =
[E6A110]&#45;&gt;a
[E6A0D0] -->
<g id="edge6" class="edge"><title>=
[E6A110]&#45;&gt;a
[E6A0D0]</title>
<path fill="none" stroke="black" d="M105.037,-443.831C93.8285,-434.963 80.1791,-424.164 68.0561,-414.572"/>
<polygon fill="black" stroke="black" points="69.9697,-411.623 59.9558,-408.163 65.6263,-417.112 69.9697,-411.623"/>
</g>
<!-- +
[E6A190] -->
<g id="node8" class="node"><title>+
[E6A190]</title>
<polygon fill="none" stroke="black" points="163.5,-408 92.5,-408 92.5,-370 163.5,-370 163.5,-408"/>
<text text-anchor="middle" x="128" y="-392.8" font-family="Times,serif" font-size="14.00">+</text>
<text text-anchor="middle" x="128" y="-377.8" font-family="Times,serif" font-size="14.00">[E6A190]</text>
</g>
<!-- =
[E6A110]&#45;&gt;+
[E6A190] -->
<g id="edge7" class="edge"><title>=
[E6A110]&#45;&gt;+
[E6A190]</title>
<path fill="none" stroke="black" d="M128,-443.831C128,-436.131 128,-426.974 128,-418.417"/>
<polygon fill="black" stroke="black" points="131.5,-418.413 128,-408.413 124.5,-418.413 131.5,-418.413"/>
</g>
<!-- a
[E6A150] -->
<g id="node9" class="node"><title>a
[E6A150]</title>
<polygon fill="none" stroke="black" points="72.5,-334 1.5,-334 1.5,-296 72.5,-296 72.5,-334"/>
<text text-anchor="middle" x="37" y="-318.8" font-family="Times,serif" font-size="14.00">a</text>
<text text-anchor="middle" x="37" y="-303.8" font-family="Times,serif" font-size="14.00">[E6A150]</text>
</g>
<!-- +
[E6A190]&#45;&gt;a
[E6A150] -->
<g id="edge8" class="edge"><title>+
[E6A190]&#45;&gt;a
[E6A150]</title>
<path fill="none" stroke="black" d="M105.037,-369.831C93.8285,-360.963 80.1791,-350.164 68.0561,-340.572"/>
<polygon fill="black" stroke="black" points="69.9697,-337.623 59.9558,-334.163 65.6263,-343.112 69.9697,-337.623"/>
</g>
<!-- 34
[E6A1D0] -->
<g id="node10" class="node"><title>34
[E6A1D0]</title>
<polygon fill="none" stroke="black" points="165,-334 91,-334 91,-296 165,-296 165,-334"/>
<text text-anchor="middle" x="128" y="-318.8" font-family="Times,serif" font-size="14.00">34</text>
<text text-anchor="middle" x="128" y="-303.8" font-family="Times,serif" font-size="14.00">[E6A1D0]</text>
</g>
<!-- +
[E6A190]&#45;&gt;34
[E6A1D0] -->
<g id="edge9" class="edge"><title>+
[E6A190]&#45;&gt;34
[E6A1D0]</title>
<path fill="none" stroke="black" d="M128,-369.831C128,-362.131 128,-352.974 128,-344.417"/>
<polygon fill="black" stroke="black" points="131.5,-344.413 128,-334.413 124.5,-344.413 131.5,-344.413"/>
</g>
<!-- out
[E6A250] -->
<g id="node12" class="node"><title>out
[E6A250]</title>
<polygon fill="none" stroke="black" points="254.5,-408 183.5,-408 183.5,-370 254.5,-370 254.5,-408"/>
<text text-anchor="middle" x="219" y="-392.8" font-family="Times,serif" font-size="14.00">out</text>
<text text-anchor="middle" x="219" y="-377.8" font-family="Times,serif" font-size="14.00">[E6A250]</text>
</g>
<!-- ;
[E6A490]&#45;&gt;out
[E6A250] -->
<g id="edge11" class="edge"><title>;
[E6A490]&#45;&gt;out
[E6A250]</title>
<path fill="none" stroke="black" d="M218.252,-443.831C218.359,-436.131 218.486,-426.974 218.605,-418.417"/>
<polygon fill="black" stroke="black" points="222.105,-418.461 218.744,-408.413 215.106,-418.364 222.105,-418.461"/>
</g>
<!-- +
[E6A2D0] -->
<g id="node13" class="node"><title>+
[E6A2D0]</title>
<polygon fill="none" stroke="black" points="257,-334 183,-334 183,-296 257,-296 257,-334"/>
<text text-anchor="middle" x="220" y="-318.8" font-family="Times,serif" font-size="14.00">+</text>
<text text-anchor="middle" x="220" y="-303.8" font-family="Times,serif" font-size="14.00">[E6A2D0]</text>
</g>
<!-- out
[E6A250]&#45;&gt;+
[E6A2D0] -->
<g id="edge12" class="edge"><title>out
[E6A250]&#45;&gt;+
[E6A2D0]</title>
<path fill="none" stroke="black" d="M219.252,-369.831C219.359,-362.131 219.486,-352.974 219.605,-344.417"/>
<polygon fill="black" stroke="black" points="223.105,-344.461 219.744,-334.413 216.106,-344.364 223.105,-344.461"/>
</g>
<!-- 530
[E6A290] -->
<g id="node14" class="node"><title>530
[E6A290]</title>
<polygon fill="none" stroke="black" points="210.5,-260 139.5,-260 139.5,-222 210.5,-222 210.5,-260"/>
<text text-anchor="middle" x="175" y="-244.8" font-family="Times,serif" font-size="14.00">530</text>
<text text-anchor="middle" x="175" y="-229.8" font-family="Times,serif" font-size="14.00">[E6A290]</text>
</g>
<!-- +
[E6A2D0]&#45;&gt;530
[E6A290] -->
<g id="edge13" class="edge"><title>+
[E6A2D0]&#45;&gt;530
[E6A290]</title>
<path fill="none" stroke="black" d="M208.645,-295.831C203.567,-287.708 197.477,-277.964 191.882,-269.012"/>
<polygon fill="black" stroke="black" points="194.776,-267.038 186.508,-260.413 188.84,-270.748 194.776,-267.038"/>
</g>
<!-- *
[E6A350] -->
<g id="node15" class="node"><title>*
[E6A350]</title>
<polygon fill="none" stroke="black" points="299.5,-260 228.5,-260 228.5,-222 299.5,-222 299.5,-260"/>
<text text-anchor="middle" x="264" y="-244.8" font-family="Times,serif" font-size="14.00">*</text>
<text text-anchor="middle" x="264" y="-229.8" font-family="Times,serif" font-size="14.00">[E6A350]</text>
</g>
<!-- +
[E6A2D0]&#45;&gt;*
[E6A350] -->
<g id="edge14" class="edge"><title>+
[E6A2D0]&#45;&gt;*
[E6A350]</title>
<path fill="none" stroke="black" d="M231.103,-295.831C236.067,-287.708 242.022,-277.964 247.493,-269.012"/>
<polygon fill="black" stroke="black" points="250.519,-270.771 252.747,-260.413 244.546,-267.121 250.519,-270.771"/>
</g>
<!-- 150
[E6A310] -->
<g id="node16" class="node"><title>150
[E6A310]</title>
<polygon fill="none" stroke="black" points="254.5,-186 183.5,-186 183.5,-148 254.5,-148 254.5,-186"/>
<text text-anchor="middle" x="219" y="-170.8" font-family="Times,serif" font-size="14.00">150</text>
<text text-anchor="middle" x="219" y="-155.8" font-family="Times,serif" font-size="14.00">[E6A310]</text>
</g>
<!-- *
[E6A350]&#45;&gt;150
[E6A310] -->
<g id="edge15" class="edge"><title>*
[E6A350]&#45;&gt;150
[E6A310]</title>
<path fill="none" stroke="black" d="M252.645,-221.831C247.567,-213.708 241.477,-203.964 235.882,-195.012"/>
<polygon fill="black" stroke="black" points="238.776,-193.038 230.508,-186.413 232.84,-196.748 238.776,-193.038"/>
</g>
<!-- cos
[E6A390] -->
<g id="node17" class="node"><title>cos
[E6A390]</title>
<polygon fill="none" stroke="black" points="343.5,-186 272.5,-186 272.5,-148 343.5,-148 343.5,-186"/>
<text text-anchor="middle" x="308" y="-170.8" font-family="Times,serif" font-size="14.00">cos</text>
<text text-anchor="middle" x="308" y="-155.8" font-family="Times,serif" font-size="14.00">[E6A390]</text>
</g>
<!-- *
[E6A350]&#45;&gt;cos
[E6A390] -->
<g id="edge16" class="edge"><title>*
[E6A350]&#45;&gt;cos
[E6A390]</title>
<path fill="none" stroke="black" d="M275.103,-221.831C280.067,-213.708 286.022,-203.964 291.493,-195.012"/>
<polygon fill="black" stroke="black" points="294.519,-196.771 296.747,-186.413 288.546,-193.121 294.519,-196.771"/>
</g>
<!-- *
[E6A410] -->
<g id="node18" class="node"><title>*
[E6A410]</title>
<polygon fill="none" stroke="black" points="343.5,-112 272.5,-112 272.5,-74 343.5,-74 343.5,-112"/>
<text text-anchor="middle" x="308" y="-96.8" font-family="Times,serif" font-size="14.00">*</text>
<text text-anchor="middle" x="308" y="-81.8" font-family="Times,serif" font-size="14.00">[E6A410]</text>
</g>
<!-- cos
[E6A390]&#45;&gt;*
[E6A410] -->
<g id="edge17" class="edge"><title>cos
[E6A390]&#45;&gt;*
[E6A410]</title>
<path fill="none" stroke="black" d="M308,-147.831C308,-140.131 308,-130.974 308,-122.417"/>
<polygon fill="black" stroke="black" points="311.5,-122.413 308,-112.413 304.5,-122.413 311.5,-122.413"/>
</g>
<!-- 4
[E6A3D0] -->
<g id="node19" class="node"><title>4
[E6A3D0]</title>
<polygon fill="none" stroke="black" points="300,-38 226,-38 226,-0 300,-0 300,-38"/>
<text text-anchor="middle" x="263" y="-22.8" font-family="Times,serif" font-size="14.00">4</text>
<text text-anchor="middle" x="263" y="-7.8" font-family="Times,serif" font-size="14.00">[E6A3D0]</text>
</g>
<!-- *
[E6A410]&#45;&gt;4
[E6A3D0] -->
<g id="edge18" class="edge"><title>*
[E6A410]&#45;&gt;4
[E6A3D0]</title>
<path fill="none" stroke="black" d="M296.645,-73.8314C291.567,-65.7079 285.477,-55.9637 279.882,-47.0118"/>
<polygon fill="black" stroke="black" points="282.776,-45.0383 274.508,-38.4133 276.84,-48.7483 282.776,-45.0383"/>
</g>
<!-- a
[E6A450] -->
<g id="node20" class="node"><title>a
[E6A450]</title>
<polygon fill="none" stroke="black" points="389.5,-38 318.5,-38 318.5,-0 389.5,-0 389.5,-38"/>
<text text-anchor="middle" x="354" y="-22.8" font-family="Times,serif" font-size="14.00">a</text>
<text text-anchor="middle" x="354" y="-7.8" font-family="Times,serif" font-size="14.00">[E6A450]</text>
</g>
<!-- *
[E6A410]&#45;&gt;a
[E6A450] -->
<g id="edge19" class="edge"><title>*
[E6A410]&#45;&gt;a
[E6A450]</title>
<path fill="none" stroke="black" d="M319.608,-73.8314C324.798,-65.7079 331.023,-55.9637 336.742,-47.0118"/>
<polygon fill="black" stroke="black" points="339.801,-48.7246 342.236,-38.4133 333.903,-44.9559 339.801,-48.7246"/>
</g>
</g>
</svg>
